<svg xmlns="http://www.w3.org/2000/svg" width="12" height="12" viewBox="0 0 12 12"><g fill="none"><rect width="12" height="12"></rect><path fill="#FFDC00" d="M3.48181495,11.5430154 C3.01970697,11.7914814 2.44367293,11.6182904 2.19520692,11.1561824 C2.09540205,10.9705609 2.06015424,10.7570215 2.09501099,10.5491721 L2.58088786,7.65190901 L0.521517564,5.5988966 C0.149946355,5.22847254 0.149016407,4.62696653 0.519440465,4.25539532 C0.663624686,4.11076458 0.850578093,4.01644739 1.05258287,3.98642726 L3.88066099,3.56614383 L5.14441015,0.947312068 C5.37243489,0.474782844 5.94034608,0.276572791 6.4128753,0.504597525 C6.60623248,0.597904384 6.76228299,0.753954894 6.85558985,0.947312068 L8.11933901,3.56614383 L10.9474171,3.98642726 C11.4663881,4.06355205 11.8245753,4.54678317 11.7474505,5.06575419 C11.7174304,5.26775897 11.6231132,5.45471238 11.4784824,5.5988966 L9.41911214,7.65190901 L9.90498901,10.5491721 C9.99176552,11.0666168 9.64264,11.5564348 9.12519533,11.6432113 C8.91734599,11.6780681 8.70380652,11.6428203 8.51818505,11.5430154 L6,10.1890388 L3.48181495,11.5430154 Z"></path></g></svg>